<svg width="2161" height="1080" viewBox="0 0 2161 1080" fill="none" xmlns="http://www.w3.org/2000/svg">
<path d="M2045.19 0L2057.85 25.725C2070.03 51.45 2096.06 102.75 2114.63 154.5C2133.92 205.725 2145.75 257.25 2120.9 308.25C2096.06 360 2032.17 411.75 2045.19 462.75C2058.2 514.275 2145.75 565.5 2158.76 617.25C2171.78 668.55 2107.89 720 2089.31 771.75C2070.03 822.825 2096.06 874.5 2101.97 925.5C2107.89 977.175 2096.06 1028.25 2089.31 1054.5L2083.04 1080L0.5 1080L0.5 1054.27C0.5 1028.55 0.5 977.25 0.5 925.5C0.5 874.275 0.5 822.75 0.5 771.75C0.5 720 0.5 668.25 0.5 617.25C0.5 565.725 0.5 514.5 0.5 462.75C0.5 411.45 0.5 360 0.5 308.25C0.5 257.175 0.5 205.5 0.5 154.5C0.5 102.825 0.5 51.75 0.5 25.5L0.5 0L2045.19 0Z" fill="#1B97D7"/>
</svg>
