<svg width="20" height="14" viewBox="0 0 20 14" fill="none" xmlns="http://www.w3.org/2000/svg">
<path d="M1.5 14C1.1 14 0.75 13.8458 0.45 13.5375C0.15 13.2292 0 12.8833 0 12.5V1.5C0 1.1 0.15 0.75 0.45 0.45C0.75 0.15 1.1 0 1.5 0H18.5C18.9 0 19.25 0.15 19.55 0.45C19.85 0.75 20 1.1 20 1.5V12.5C20 12.8833 19.85 13.2292 19.55 13.5375C19.25 13.8458 18.9 14 18.5 14H1.5ZM5.5 10.875H14.5V9.375H5.5V10.875ZM3.075 7.75H4.575V6.25H3.075V7.75ZM6.175 7.75H7.675V6.25H6.175V7.75ZM9.25 7.75H10.75V6.25H9.25V7.75ZM12.35 7.75H13.85V6.25H12.35V7.75ZM15.425 7.75H16.925V6.25H15.425V7.75ZM3.075 4.625H4.575V3.125H3.075V4.625ZM6.175 4.625H7.675V3.125H6.175V4.625ZM9.25 4.625H10.75V3.125H9.25V4.625ZM12.35 4.625H13.85V3.125H12.35V4.625ZM15.425 4.625H16.925V3.125H15.425V4.625Z" fill="#75777A"/>
</svg>
