<svg width="2210" height="1080" viewBox="0 0 2210 1080" fill="none" xmlns="http://www.w3.org/2000/svg">
<path d="M2142.25 1080H2158.45C2174.72 1047.9 2193.31 1014.8 2187.92 950.227C2182.12 886.313 2139.41 822.024 2117.34 758.39C2095.67 693.821 2095.67 629.251 2122.83 565.618C2149.58 501.329 2204.5 437.415 2209.58 372.845C2214.67 308.837 2171.95 244.642 2155.37 180.073C2139.41 116.345 2149.58 63.6337 2139.1 0H2118.84H2102.62L39.4908 0H16.7108H0C0 63.9144 0 116.439 0 180.073C0 244.642 0 309.212 0 372.845C0 437.134 0 501.048 0 565.618C0 629.626 0 693.821 0 758.39C0 822.118 0 886.594 0 950.227C0 1014.7 0 1047.25 0 1080H14.0258L2142.25 1080Z" fill="#0784B5"/>
</svg>
