<svg width="60" height="61" viewBox="0 0 60 61" fill="none" xmlns="http://www.w3.org/2000/svg">
<path d="M29 35.25C30.2909 35.25 31.3864 34.8375 32.2864 34.0125C33.1864 33.1875 33.6364 32.1833 33.6364 31C33.6364 29.8167 33.1864 28.8125 32.2864 27.9875C31.3864 27.1625 30.2909 26.75 29 26.75C27.7091 26.75 26.6136 27.1625 25.7136 27.9875C24.8136 28.8125 24.3636 29.8167 24.3636 31C24.3636 32.1833 24.8136 33.1875 25.7136 34.0125C26.6136 34.8375 27.7091 35.25 29 35.25ZM29 33.8C28.1455 33.8 27.4227 33.5292 26.8318 32.9875C26.2409 32.4458 25.9455 31.7833 25.9455 31C25.9455 30.2167 26.2409 29.5542 26.8318 29.0125C27.4227 28.4708 28.1455 28.2 29 28.2C29.8545 28.2 30.5773 28.4708 31.1682 29.0125C31.7591 29.5542 32.0545 30.2167 32.0545 31C32.0545 31.7833 31.7591 32.4458 31.1682 32.9875C30.5773 33.5292 29.8545 33.8 29 33.8ZM29 38.5C26.3455 38.5 23.9455 37.8083 21.8 36.425C19.6545 35.0417 18.0545 33.2333 17 31C18.0545 28.7667 19.6545 26.9583 21.8 25.575C23.9455 24.1917 26.3455 23.5 29 23.5C31.6545 23.5 34.0545 24.1917 36.2 25.575C38.3455 26.9583 39.9455 28.7667 41 31C39.9455 33.2333 38.3455 35.0417 36.2 36.425C34.0545 37.8083 31.6545 38.5 29 38.5ZM29 37C31.2 37 33.2227 36.4542 35.0682 35.3625C36.9136 34.2708 38.3182 32.8167 39.2818 31C38.3182 29.1833 36.9136 27.7292 35.0682 26.6375C33.2227 25.5458 31.2 25 29 25C26.8 25 24.7773 25.5458 22.9318 26.6375C21.0864 27.7292 19.6727 29.1833 18.6909 31C19.6727 32.8167 21.0864 34.2708 22.9318 35.3625C24.7773 36.4542 26.8 37 29 37Z" fill="white" fill-opacity="0.5"/>
</svg>
