<svg width="60" height="61" viewBox="0 0 60 61" fill="none" xmlns="http://www.w3.org/2000/svg">
<path d="M33.0636 33.1361L31.8636 32.0375C32.3364 30.8556 32.0909 29.8735 31.1273 29.0911C30.1636 28.3088 29.1182 28.109 27.9909 28.4919L26.7909 27.3933C27.1 27.2102 27.4455 27.077 27.8273 26.9938C28.2091 26.9105 28.6 26.8689 29 26.8689C30.2909 26.8689 31.3864 27.2809 32.2864 28.1049C33.1864 28.9288 33.6364 29.9318 33.6364 31.1136C33.6364 31.4798 33.5864 31.8419 33.4864 32.1998C33.3864 32.5576 33.2455 32.8697 33.0636 33.1361V33.1361ZM36.5818 36.3571L35.4909 35.3583C36.3818 34.7591 37.1591 34.0891 37.8227 33.3483C38.4864 32.6076 38.9727 31.8627 39.2818 31.1136C38.3727 29.2659 37.0091 27.8052 35.1909 26.7316C33.3727 25.6579 31.4 25.1211 29.2727 25.1211C28.5091 25.1211 27.7273 25.1877 26.9273 25.3208C26.1273 25.454 25.5 25.6122 25.0455 25.7953L23.7909 24.6217C24.4273 24.3554 25.2409 24.1223 26.2318 23.9226C27.2227 23.7228 28.1909 23.623 29.1364 23.623C31.7364 23.623 34.1136 24.3013 36.2682 25.6579C38.4227 27.0146 40 28.8331 41 31.1136C40.5273 32.1789 39.9182 33.1527 39.1727 34.035C38.4273 34.9172 37.5636 35.6912 36.5818 36.3571ZM38.1636 42L33.5818 37.8801C32.9455 38.1132 32.2273 38.2921 31.4273 38.417C30.6273 38.5418 29.8182 38.6042 29 38.6042C26.3455 38.6042 23.9364 37.9259 21.7727 36.5693C19.6091 35.2127 18.0182 33.3941 17 31.1136C17.3636 30.248 17.8682 29.4032 18.5136 28.5793C19.1591 27.7553 19.9455 26.9688 20.8727 26.2197L17.4364 23.0737L18.5818 22L39.2273 40.9014L38.1636 42ZM21.9909 27.2684C21.3182 27.7179 20.6682 28.3088 20.0409 29.0412C19.4136 29.7736 18.9636 30.4644 18.6909 31.1136C19.6182 32.9613 21.0136 34.422 22.8773 35.4956C24.7409 36.5693 26.8545 37.1061 29.2182 37.1061C29.8182 37.1061 30.4091 37.0728 30.9909 37.0062C31.5727 36.9397 32.0091 36.8398 32.3 36.7066L30.5545 35.1086C30.3545 35.1918 30.1091 35.2543 29.8182 35.2959C29.5273 35.3375 29.2545 35.3583 29 35.3583C27.7273 35.3583 26.6364 34.9505 25.7273 34.1348C24.8182 33.3192 24.3636 32.3121 24.3636 31.1136C24.3636 30.8639 24.3864 30.6142 24.4318 30.3645C24.4773 30.1149 24.5455 29.8901 24.6364 29.6904L21.9909 27.2684Z" fill="white"/>
</svg>
