<svg width="60" height="60" viewBox="0 0 60 61" fill="none" xmlns="http://www.w3.org/2000/svg">
<path d="M23.2609 32.325C22.7739 32.325 22.3565 32.1583 22.0087 31.825C21.6609 31.4917 21.487 31.0917 21.487 30.625C21.487 30.1583 21.6609 29.7583 22.0087 29.425C22.3565 29.0917 22.7739 28.925 23.2609 28.925C23.7478 28.925 24.1652 29.0917 24.513 29.425C24.8609 29.7583 25.0348 30.1583 25.0348 30.625C25.0348 31.0917 24.8609 31.4917 24.513 31.825C24.1652 32.1583 23.7478 32.325 23.2609 32.325V32.325ZM23.2609 36.625C21.5217 36.625 20.0435 36.0417 18.8261 34.875C17.6087 33.7083 17 32.2917 17 30.625C17 28.9583 17.6087 27.5417 18.8261 26.375C20.0435 25.2083 21.5217 24.625 23.2609 24.625C24.513 24.625 25.6087 24.9083 26.5478 25.475C27.487 26.0417 28.2261 26.9 28.7652 28.05H38.0522L41 30.875L36.6435 34.7L34.3478 33.1L32.0522 34.7L30.0957 33.2H28.7652C28.3304 34.2 27.6478 35.0208 26.7174 35.6625C25.787 36.3042 24.6348 36.625 23.2609 36.625ZM23.2609 35.125C24.2696 35.125 25.2 34.8042 26.0522 34.1625C26.9043 33.5208 27.4522 32.7 27.6957 31.7H30.6696L32.0783 32.825L34.3739 31.25L36.513 32.8L38.7304 30.825L37.4 29.55H27.6957C27.487 28.6167 26.9652 27.8125 26.1304 27.1375C25.2957 26.4625 24.3391 26.125 23.2609 26.125C21.9565 26.125 20.8478 26.5625 19.9348 27.4375C19.0217 28.3125 18.5652 29.375 18.5652 30.625C18.5652 31.875 19.0217 32.9375 19.9348 33.8125C20.8478 34.6875 21.9565 35.125 23.2609 35.125Z" fill="white"/>
</svg>
