<svg width="60" height="60" viewBox="0 0 60 61" fill="none" xmlns="http://www.w3.org/2000/svg">
<path d="M18.8 40.625C18.32 40.625 17.9 40.4375 17.54 40.0625C17.18 39.6875 17 39.25 17 38.75V22.5C17 22 17.18 21.5625 17.54 21.1875C17.9 20.8125 18.32 20.625 18.8 20.625H39.2C39.68 20.625 40.1 20.8125 40.46 21.1875C40.82 21.5625 41 22 41 22.5V38.75C41 39.25 40.82 39.6875 40.46 40.0625C40.1 40.4375 39.68 40.625 39.2 40.625H18.8ZM29 31.1875L18.8 24.2188V38.75H39.2V24.2188L29 31.1875ZM29 29.3125L39.08 22.5H18.95L29 29.3125ZM18.8 24.2188V22.5V38.75V24.2188Z" fill="white"/>
</svg>
