<svg width="28" height="28" viewBox="0 0 28 28" fill="none" xmlns="http://www.w3.org/2000/svg">
<path d="M6.47504 20.5625C7.70004 19.7069 8.91532 19.0507 10.1209 18.5937C11.3264 18.1368 12.6195 17.9083 14 17.9083C15.3806 17.9083 16.6785 18.1368 17.8938 18.5937C19.1091 19.0507 20.3292 19.7069 21.5542 20.5625C22.4098 19.5125 23.0174 18.4528 23.3771 17.3833C23.7368 16.3139 23.9167 15.1861 23.9167 14C23.9167 11.1806 22.9688 8.82291 21.073 6.92708C19.1771 5.03124 16.8195 4.08333 14 4.08333C11.1806 4.08333 8.82296 5.03124 6.92712 6.92708C5.03129 8.82291 4.08337 11.1806 4.08337 14C4.08337 15.1861 4.2681 16.3139 4.63754 17.3833C5.00698 18.4528 5.61949 19.5125 6.47504 20.5625ZM14 14.875C12.8723 14.875 11.9243 14.491 11.1563 13.7229C10.3882 12.9549 10.0042 12.0069 10.0042 10.8792C10.0042 9.75138 10.3882 8.80347 11.1563 8.03541C11.9243 7.26736 12.8723 6.88333 14 6.88333C15.1278 6.88333 16.0757 7.26736 16.8438 8.03541C17.6118 8.80347 17.9959 9.75138 17.9959 10.8792C17.9959 12.0069 17.6118 12.9549 16.8438 13.7229C16.0757 14.491 15.1278 14.875 14 14.875ZM14 25.6667C12.4056 25.6667 10.8987 25.3604 9.47921 24.7479C8.05976 24.1354 6.82018 23.2993 5.76046 22.2396C4.70074 21.1799 3.86462 19.9403 3.25212 18.5208C2.63962 17.1014 2.33337 15.5944 2.33337 14C2.33337 12.3861 2.63962 10.8743 3.25212 9.46458C3.86462 8.05486 4.70074 6.82013 5.76046 5.76041C6.82018 4.70069 8.05976 3.86458 9.47921 3.25208C10.8987 2.63958 12.4056 2.33333 14 2.33333C15.6139 2.33333 17.1257 2.63958 18.5355 3.25208C19.9452 3.86458 21.1799 4.70069 22.2396 5.76041C23.2993 6.82013 24.1355 8.05486 24.748 9.46458C25.3605 10.8743 25.6667 12.3861 25.6667 14C25.6667 15.5944 25.3605 17.1014 24.748 18.5208C24.1355 19.9403 23.2993 21.1799 22.2396 22.2396C21.1799 23.2993 19.9452 24.1354 18.5355 24.7479C17.1257 25.3604 15.6139 25.6667 14 25.6667ZM14 23.9167C15.0695 23.9167 16.1146 23.7611 17.1355 23.45C18.1563 23.1389 19.1625 22.5944 20.1542 21.8167C19.1625 21.1167 18.1514 20.5819 17.1209 20.2125C16.0903 19.8431 15.05 19.6583 14 19.6583C12.95 19.6583 11.9098 19.8431 10.8792 20.2125C9.84865 20.5819 8.83754 21.1167 7.84587 21.8167C8.83754 22.5944 9.84379 23.1389 10.8646 23.45C11.8855 23.7611 12.9306 23.9167 14 23.9167ZM14 13.125C14.6612 13.125 15.2007 12.916 15.6188 12.4979C16.0368 12.0799 16.2459 11.5403 16.2459 10.8792C16.2459 10.218 16.0368 9.67847 15.6188 9.26041C15.2007 8.84236 14.6612 8.63333 14 8.63333C13.3389 8.63333 12.7993 8.84236 12.3813 9.26041C11.9632 9.67847 11.7542 10.218 11.7542 10.8792C11.7542 11.5403 11.9632 12.0799 12.3813 12.4979C12.7993 12.916 13.3389 13.125 14 13.125Z" fill="white"/>
</svg>
