<svg width="70" height="70" viewBox="0 0 70 70" fill="none" xmlns="http://www.w3.org/2000/svg">
<path d="M12.1579 55.9079C15.8421 53.3903 19.511 51.4254 23.1645 50.0132C26.818 48.6009 30.7632 47.8947 35 47.8947C39.2368 47.8947 43.1974 48.6009 46.8816 50.0132C50.5658 51.4254 54.25 53.3903 57.9342 55.9079C60.5746 52.7763 62.5548 49.4912 63.875 46.0526C65.1952 42.614 65.8553 38.9298 65.8553 35C65.8553 26.2807 62.8925 18.9583 56.9671 13.0329C51.0417 7.10746 43.7193 4.14474 35 4.14474C26.2807 4.14474 18.9583 7.10746 13.0329 13.0329C7.10746 18.9583 4.14474 26.2807 4.14474 35C4.14474 38.9298 4.80482 42.614 6.125 46.0526C7.44518 49.4912 9.45614 52.7763 12.1579 55.9079ZM35 37.1184C31.6842 37.1184 28.8904 35.9825 26.6184 33.7105C24.3465 31.4386 23.2105 28.6447 23.2105 25.3289C23.2105 22.0132 24.3465 19.2193 26.6184 16.9474C28.8904 14.6754 31.6842 13.5395 35 13.5395C38.3158 13.5395 41.1096 14.6754 43.3816 16.9474C45.6535 19.2193 46.7895 22.0132 46.7895 25.3289C46.7895 28.6447 45.6535 31.4386 43.3816 33.7105C41.1096 35.9825 38.3158 37.1184 35 37.1184ZM35 70C30.1491 70 25.6053 69.0789 21.3684 67.2368C17.1316 65.3947 13.432 62.8925 10.2697 59.7303C7.10746 56.568 4.60526 52.8684 2.76316 48.6316C0.921053 44.3947 0 39.8509 0 35C0 30.1491 0.921053 25.6053 2.76316 21.3684C4.60526 17.1316 7.10746 13.432 10.2697 10.2697C13.432 7.10746 17.1316 4.60526 21.3684 2.76316C25.6053 0.921053 30.1491 0 35 0C39.8509 0 44.3947 0.921053 48.6316 2.76316C52.8684 4.60526 56.568 7.10746 59.7303 10.2697C62.8925 13.432 65.3947 17.1316 67.2368 21.3684C69.0789 25.6053 70 30.1491 70 35C70 39.8509 69.0789 44.3947 67.2368 48.6316C65.3947 52.8684 62.8925 56.568 59.7303 59.7303C56.568 62.8925 52.8684 65.3947 48.6316 67.2368C44.3947 69.0789 39.8509 70 35 70ZM35 65.8553C38.4386 65.8553 41.8158 65.3026 45.1316 64.1974C48.4474 63.0921 51.5789 61.3421 54.5263 58.9474C51.5789 56.7368 48.4627 55.0482 45.1776 53.8816C41.8925 52.7149 38.5 52.1316 35 52.1316C31.5 52.1316 28.0921 52.7149 24.7763 53.8816C21.4605 55.0482 18.3596 56.7368 15.4737 58.9474C18.4211 61.3421 21.5526 63.0921 24.8684 64.1974C28.1842 65.3026 31.5614 65.8553 35 65.8553ZM35 32.8816C37.2105 32.8816 39.0219 32.1754 40.4342 30.7632C41.8465 29.3509 42.5526 27.5395 42.5526 25.3289C42.5526 23.1184 41.8465 21.307 40.4342 19.8947C39.0219 18.4825 37.2105 17.7763 35 17.7763C32.7895 17.7763 30.9781 18.4825 29.5658 19.8947C28.1535 21.307 27.4474 23.1184 27.4474 25.3289C27.4474 27.5395 28.1535 29.3509 29.5658 30.7632C30.9781 32.1754 32.7895 32.8816 35 32.8816Z" fill="white"/>
</svg>
