<svg width="2112" height="1080" viewBox="0 0 2112 1080" fill="none" xmlns="http://www.w3.org/2000/svg">
<path d="M2026.56 1080L2047.94 1054.28C2069 1028.55 2112.24 977.25 2112 925.5C2112.24 874.275 2069 822.75 2039.37 771.75C2009.74 720 1992.13 668.25 2009.5 617.25C2026.56 565.725 2077.81 514.5 2086.38 462.75C2094.62 411.45 2060.99 360 2052.18 308.25C2043.37 257.175 2060.99 205.5 2060.75 154.5C2060.99 102.825 2043.37 51.75 2035.13 25.5L2026.56 0L0 0L0 25.7251C0 51.4501 0 102.75 0 154.5C0 205.725 0 257.25 0 308.25C0 360 0 411.75 0 462.75C0 514.275 0 565.5 0 617.25C0 668.55 0 720 0 771.75C0 822.825 0 874.5 0 925.5C0 977.175 0 1028.25 0 1054.5L0 1080L2026.56 1080Z" fill="url(#paint0_linear_414_4)"/>
<defs>
<linearGradient id="paint0_linear_414_4" x1="1952.91" y1="615" x2="-58.1421" y2="615" gradientUnits="userSpaceOnUse">
<stop stop-color="#39ACE7"/>
<stop offset="1" stop-color="#0784B5"/>
</linearGradient>
</defs>
</svg>
